<?xml version="1.0" standalone="no"?>
<!DOCTYPE svg PUBLIC "-//W3C//DTD SVG 20010904//EN"
 "http://www.w3.org/TR/2001/REC-SVG-20010904/DTD/svg10.dtd">
<svg version="1.0" xmlns="http://www.w3.org/2000/svg"
 width="500.000000pt" height="500.000000pt" viewBox="0 0 500.000000 500.000000"
 preserveAspectRatio="xMidYMid meet">
<metadata>
Created by potrace 1.14, written by Peter Selinger 2001-2017
</metadata>
<g transform="translate(0.000000,500.000000) scale(0.100000,-0.100000)"
fill="#000000" stroke="none">
<path d="M960 4562 c-101 -7 -245 -44 -315 -82 -78 -41 -89 -49 -133 -92 -103
-100 -145 -202 -144 -349 1 -139 51 -259 151 -360 89 -90 176 -141 367 -217
239 -95 283 -131 257 -208 -17 -52 -54 -69 -151 -69 -76 0 -95 4 -152 31 -76
36 -165 114 -210 184 -18 28 -33 50 -34 50 -1 0 -74 -53 -163 -117 -89 -65
-170 -123 -179 -129 -16 -9 -17 -14 -4 -45 56 -135 243 -299 420 -367 383
-149 835 -31 989 258 42 79 61 167 57 270 -5 124 -24 185 -89 280 -69 102
-212 192 -422 264 -213 73 -258 97 -280 149 -43 102 104 148 248 79 42 -21 81
-49 109 -81 l43 -49 195 109 c117 65 194 114 192 121 -4 16 -63 98 -100 139
-73 82 -227 173 -347 204 -81 21 -222 33 -305 27z"/>
<path d="M1985 4510 c-2 -3 -3 -389 -3 -857 l-1 -853 620 0 619 0 0 225 c0
173 -3 225 -12 226 -7 0 -165 1 -350 1 l-338 1 0 631 0 631 -266 0 c-146 0
-267 -2 -269 -5z"/>
<path d="M2840 4513 c0 -3 107 -208 145 -278 18 -33 58 -109 90 -170 32 -60
77 -146 100 -190 23 -44 68 -129 100 -190 134 -256 180 -343 210 -400 18 -33
65 -123 105 -200 40 -77 76 -144 80 -150 4 -5 36 -65 70 -133 55 -105 65 -120
75 -105 7 10 47 86 90 168 43 83 94 182 115 220 37 69 189 358 298 565 30 58
71 137 92 175 21 39 70 133 110 210 40 77 76 145 80 150 9 13 170 322 170 327
0 2 -143 3 -317 3 l-317 0 -28 -70 c-15 -39 -84 -214 -153 -390 -69 -176 -132
-333 -139 -348 l-13 -28 -26 68 c-57 152 -297 757 -303 762 -5 5 -634 9 -634
4z"/>
<path d="M868 2255 c-2 -1 -39 -5 -83 -8 -44 -3 -93 -10 -108 -16 -15 -6 -27
-9 -27 -7 0 2 -30 -7 -67 -20 -193 -70 -320 -206 -348 -374 -32 -184 33 -367
174 -490 59 -53 163 -120 185 -120 6 0 16 -4 22 -9 5 -5 60 -30 123 -55 240
-98 281 -129 267 -198 -8 -40 -22 -56 -64 -74 -132 -55 -333 35 -447 200 -24
35 -42 53 -50 48 -56 -33 -344 -250 -344 -259 -2 -30 80 -145 158 -221 104
-102 270 -185 432 -217 119 -24 327 -20 396 6 13 5 23 7 23 4 0 -2 30 7 68 21
208 78 339 210 386 388 15 59 16 204 2 271 -17 75 -67 159 -139 230 -85 83
-187 138 -389 209 -204 72 -251 101 -262 168 -9 52 56 89 148 83 68 -4 167
-56 218 -115 l41 -48 41 23 c23 12 112 61 198 109 178 99 171 86 100 176 -136
171 -317 269 -527 286 -38 3 -82 7 -97 9 -15 2 -28 2 -30 0z"/>
<path d="M1680 2202 c-6 -2 -10 -88 -10 -238 l0 -234 28 -1 c15 0 125 -1 245
-1 l217 -1 0 -619 0 -618 270 0 270 0 0 619 0 618 218 1 c119 0 229 1 245 1
l27 1 -2 237 -3 238 -747 0 c-411 0 -752 -1 -758 -3z"/>
<path d="M3365 2201 c-1 -3 -3 -390 -3 -858 l0 -853 269 0 269 0 0 270 0 270
38 0 37 0 125 -221 c69 -122 137 -243 153 -270 l27 -49 311 0 c245 0 309 3
303 12 -4 7 -94 144 -200 304 -107 161 -194 294 -194 298 0 3 19 15 42 27 57
29 156 131 191 196 43 80 68 193 66 298 -6 327 -190 518 -554 571 -59 8 -875
13 -880 5z m760 -462 c75 -20 115 -77 110 -156 -6 -104 -74 -146 -234 -147
l-96 -1 -3 158 -3 157 93 0 c51 0 111 -5 133 -11z"/>
</g>
</svg>
